<svg xmlns="http://www.w3.org/2000/svg" width="31.972" height="37.301" viewBox="8.014 4.35 31.972 37.301"><path d="M24 41.65c8.827 0 15.986-7.16 15.986-15.986C31.158 25.664 24 32.822 24 41.65zM12.64 20.78a4.443 4.443 0 0 0 6.954 3.66l-.036.336c0 2.45 1.99 4.44 4.44 4.44s4.44-1.99 4.44-4.44l-.035-.337a4.443 4.443 0 0 0 6.954-3.66 4.418 4.418 0 0 0-2.54-3.997 4.435 4.435 0 0 0 2.54-3.997 4.443 4.443 0 0 0-6.954-3.66l.037-.336c0-2.45-1.99-4.44-4.44-4.44s-4.44 1.99-4.44 4.44l.035.337a4.443 4.443 0 0 0-6.953 3.66 4.421 4.421 0 0 0 2.54 3.996 4.418 4.418 0 0 0-2.54 3.997zM24 12.343c2.45 0 4.44 1.99 4.44 4.44s-1.99 4.44-4.44 4.44-4.44-1.99-4.44-4.44 1.99-4.44 4.44-4.44zM8.014 25.663c0 8.828 7.158 15.987 15.986 15.987 0-8.828-7.158-15.986-15.986-15.986z"/></svg>