<svg xmlns="http://www.w3.org/2000/svg" width="20.294" height="18.849" viewBox="264.205 370.961 20.294 18.849"><path d="M283.75 378.19h-3.15l-3.408-6.814a.75.75 0 1 0-1.341.672l3.072 6.143h-9.138l3.072-6.143a.75.75 0 0 0-.335-1.006.75.75 0 0 0-1.005.336l-3.407 6.814h-3.15a.75.75 0 1 0 0 1.5h.156l.855 2.99a.739.739 0 0 0-.317.596c0 .396.31.71.697.74l1.656 5.794h12.697l1.656-5.795a.745.745 0 0 0 .697-.74.74.74 0 0 0-.316-.595l.855-2.99h.157a.75.75 0 1 0-.002-1.5zm-4.18 10.12h-10.434l-1.224-4.283h12.88l-1.223 4.284zm1.652-5.784h-13.74l-.81-2.836h15.36l-.81 2.836z"/></svg>